<svg xmlns="http://www.w3.org/2000/svg" xmlns:xlink="http://www.w3.org/1999/xlink" fill="none" stroke="none" stroke-linecap="square" stroke-miterlimit="10" version="1.1" viewBox="0 0 204.601 205.181"><clipPath id="p.0"><path d="m0 0l204.60104 0l0 205.1811l-204.60104 0l0 -205.1811z" clip-rule="nonzero"/></clipPath><g clip-path="url(#p.0)"><path fill="#000" fill-opacity="0" fill-rule="evenodd" d="m0 0l204.60104 0l0 205.1811l-204.60104 0z"/><defs><linearGradient id="p.1" x1=".449" x2=".449" y1="0" y2="13.913" gradientTransform="matrix(13.91314123773075 0.0 0.0 13.91314123773075 0.0 0.0)" gradientUnits="userSpaceOnUse" spreadMethod="pad"><stop offset="0" stop-color="#696969"/><stop offset="1" stop-color="#1d1d1d"/></linearGradient></defs><path fill="url(#p.1)" fill-rule="evenodd" d="m6.242782 96.7874l0 0c0 -53.454205 43.037067 -96.7874 96.125984 -96.7874l0 0c25.494194 0 49.94422 10.197215 67.97134 28.348373c18.027115 18.151157 28.154648 42.769417 28.154648 68.439026l0 0c0 53.45421 -43.037064 96.7874 -96.125984 96.7874l0 0c-53.088917 0 -96.125984 -43.33319 -96.125984 -96.7874z"/><path fill="#000" fill-opacity="0" fill-rule="evenodd" d="m17.359581 96.7874l0 0c0 -47.52258 38.059322 -86.04724 85.00787 -86.04724l0 0c22.545486 0 44.16758 9.065665 60.109642 25.202652c15.942078 16.13699 24.89824 38.023445 24.89824 60.84459l0 0c0 47.522583 -38.059326 86.04724 -85.00788 86.04724l0 0c-46.94855 0 -85.00787 -38.52466 -85.00787 -86.04724z"/><path fill-rule="evenodd" stroke="#fff" stroke-linecap="butt" stroke-linejoin="round" stroke-width="1" d="m17.359581 96.7874l0 0c0 -47.52258 38.059322 -86.04724 85.00787 -86.04724l0 0c22.545486 0 44.16758 9.065665 60.109642 25.202652c15.942078 16.13699 24.89824 38.023445 24.89824 60.84459l0 0c0 47.522583 -38.059326 86.04724 -85.00788 86.04724l0 0c-46.94855 0 -85.00787 -38.52466 -85.00787 -86.04724z"/></g></svg>