<?xml version="1.0" encoding="UTF-8"?>
<svg id="Calque_2" data-name="Calque 2" xmlns="http://www.w3.org/2000/svg" viewBox="0 0 515.05 398.85">
  <defs>
    <style>
      .cls-1 {
        opacity: 0;
      }

      .cls-1, .cls-2, .cls-3 {
        stroke-width: 0px;
      }

      .cls-1, .cls-3 {
        fill: #0f1237;
      }

      .cls-2 {
        fill: #f3f6f8;
      }
    </style>
  </defs>
  <g id="zone_de_protection">
    <rect id="ZP_0" data-name="ZP 0" class="cls-1" width="515.05" height="398.85"/>
  </g>
  <g id="fond_logo_sombre">
    <path class="cls-2" d="M242.33,88.96l15.85,13.42,15.85-13.42,15.85-13.42s3.62-11.09,6.62-20.38c-3.19-1.44-6.49-2.72-9.87-3.8.09.1-7.09,22.11-7.09,22.11l-10.68,9.04-10.68,9.04-10.68-9.04-10.68-9.04-7.09-22.11c-3.36,1.07-6.63,2.34-9.8,3.77l6.55,20.41,15.85,13.42h0Z"/>
    <path class="cls-2" d="M334.44,133.97c-1.36,8.07-1.36,21.14.64,29.21,1.4,5.67,4.14,12.52,9.98,12.52,1.75,0,3.29-.45,4.62-1.22,3.77-11.63-1.3-27.9-1.3-40.67,0-3.41-.21-6.77-.61-10.08-.81-.24-1.71-.38-2.71-.38-5.84,0-9.64,4.86-10.61,10.61h-.01Z"/>
    <path class="cls-2" d="M171.37,175.82c5.84.03,8.61-6.81,10.04-12.47,2.04-8.06,2.1-21.13.78-29.21-.94-5.76-4.72-10.64-10.56-10.67-1.15,0-2.16.16-3.07.47-.38,3.24-.58,6.53-.58,9.86,0,13.58-5.73,30.36-.77,42.17-.2-.48-.38-.96-.55-1.45,1.35.81,2.92,1.28,4.71,1.29h0Z"/>
    <path class="cls-2" d="M306.14,100.29c-19.66,3.78-22.69,7.03-47.74,8.38-25.05-1.35-28.08-4.61-47.74-8.38-3.72-.71-24.63,1.88-20.05,17.09,3.51,11.65,11.86,15.34,12.29,30.53.52,18.42-15.08,28.47-8.54,33.77,14.68,13.12,44.38,17.68,64.04,17.15,19.66.53,49.36-4.02,64.04-17.15,6.54-5.3-9.06-15.35-8.54-33.77.43-15.19,8.78-18.87,12.29-30.53,4.58-15.21-16.33-17.81-20.05-17.09h0ZM233.72,168.87c-6.82,1.57-14.05-4.53-16.15-13.64-2.1-9.11,1.72-17.77,8.54-19.34,6.82-1.57,14.05,4.53,16.15,13.64,2.1,9.11-1.72,17.77-8.54,19.34ZM298.7,155.21c-2.1,9.11-9.33,15.22-16.15,13.65s-10.64-10.23-8.54-19.34,9.33-15.22,16.15-13.65,10.64,10.23,8.54,19.34Z"/>
  </g>
  <g id="logo_sombre">
    <g id="logo_sombre-2" data-name="logo_sombre">
      <path id="tentacule_6" data-name="tentacule 6" class="cls-3" d="M343.61,183.94s76.97,19.32,68.84-55.9c-2.87-26.55-28.2-84.4,32.61-83.42,21.91,0,28.96,23.48,23.74,36.26-5.82,14.26-29.22,20.87-21.65-7.3,5.26-19.59-29.99-15.26-20.87,8.61,4,10.47,47.01,101.83-19.57,137.22-20.74,11.02-50.09,13.83-88.17-17.3-5.63-5.63,25.04-18.18,25.04-18.18h.03Z"/>
      <g id="tentacule_5" data-name="tentacule 5">
        <path class="cls-3" d="M351.38,277.42c2.13,6.99,2.08,16.91-6.02,27.28-10.19,13.04-17.12,10.6-27.55-.82-7.07-7.74-16.87.41-9.54,12.02,9.64,15.26,43.93,19.29,60.31-8.76,6.32-10.82,9-22.09,8.61-32.82-8.36.43-17.37,1.67-25.82,3.09h.01Z"/>
        <path class="cls-3" d="M369.68,248.6c-2.65-4.51-5.95-8.67-9.85-12.36-28.93-27.3-41.29-34.13-41.29-34.13l-25.65,8.37c.21.52.32,1.11.29,1.79-.04,1.83.06,3.57.29,5.23,3.64,7.88,10.97,15.4,19.2,22.45,17.98,7.88,41.71,8.98,57.02,8.66h0Z"/>
      </g>
      <path id="tentacule4" class="cls-3" d="M254.42,213.63s15.81,80.67,81.31,64.51c25.52-4.56,73.53-13.72,69.92,9.74-1.7,11-14.67,10.15-23.31,21.13-4.53,5.76,1.18,16.09,15.47,9.74,26.87-11.94,37.97-71.88-17.88-68.98-16.07,1.24-87.6,3.94-86.59-37.49.4-12.12-38.91,1.36-38.91,1.36h0Z"/>
      <path id="tentacule_3" data-name="tentacule 3" class="cls-3" d="M269.15,338.78c7.21-11.9-.54-22.03-13.7-13.7-7.59,6.38-18.12,15.04-32.3,6.45s-5.39-27.02.33-33.72c13.96-16.34,33.05-20.68,37.07-43.66,2.47-14.06-1.04-21.66-2.78-28.57-.73-2.93-1.79-11.73-1.79-11.73l-34.4-1.28-.53.84s10.88,21.12-11.01,49.33c-26.14,33.67-19.52,61.56-16.68,69.51,11.78,33.04,65.58,23.37,75.79,6.51v.02Z"/>
      <path id="tentacule2" class="cls-3" d="M198.74,202.69s-20.86,58.89-66.61,23.3c-12.97-10.09-31.19-34.79-56.09-24.26-13.57,5.74-42,45.65-10.43,70.17,14.76,9.56,20.35-5.22,18-10.96-2.25-5.5-10.27-12.5-10.12-17.98.46-16.79,9.86-21.39,20.55-19.32,7.3,1.41,12.53,11.92,23.74,24.78,14.67,16.83,51.76,34.43,79.49,16.17,12.34-9.13,23.29-19.83,25.64-52.17-4.74-11.7-24.17-9.74-24.17-9.74h0Z"/>
      <path id="tentacule_1" data-name="tentacule 1" class="cls-3" d="M132.72,131.06c-3.39-66.38-47.12-69.59-56.34-69.77s-27.14,4.18-31.05,20.87c-3.41,14.55,5.74,35.97,17.48,33.91,12.21-2.14,4.3-21.27,4.96-26.87,1.04-8.87,12.37-11.45,19.83-5.48,19.57,15.65,19.27,26.78,17.48,84.26-1.3,41.74,37.83,62.4,58.78,62.35,17.44-.04,31.77-18.33,35.11-27.66,1.76-4.91-15.89-23.21-21.1-14.87-9.86,15.78-42.86-12.41-45.13-56.76l-.02.02Z"/>
      <g id="elements_tete">
        <path id="ecouteur_droit" data-name="ecouteur droit" class="cls-3" d="M350.99,176.3h0c-5.84,0-8.58-6.85-9.98-12.52-2-8.07-2-21.14-.64-29.21.97-5.76,4.78-10.61,10.61-10.61h0c5.84,0,8.3,4.33,9.89,10.34,3.81,14.42,2.11,24.95.73,31.39-1.22,5.71-4.78,10.61-10.61,10.61Z"/>
        <path id="ecouteur_gauche" data-name="ecouteur gauche" class="cls-3" d="M165.26,175.82h0c5.84.03,8.61-6.81,10.04-12.47,2.04-8.06,2.1-21.13.78-29.21-.94-5.76-4.72-10.64-10.56-10.67h0c-5.84-.03-8.32,4.28-9.94,10.29-3.88,14.41-2.24,24.94-.89,31.39,1.2,5.71,4.72,10.64,10.56,10.67h.01Z"/>
        <path class="cls-3" d="M247.56,82.51l10.68,9.04,10.68-9.04,10.68-9.04s7.18-22.01,7.09-22.11c-.23-.07-.46-.15-.7-.22-.38-.12-.75-.23-1.13-.35-8.41-2.5-17.35-3.85-26.62-3.85-9.94,0-19.5,1.55-28.45,4.41l7.09,22.11,10.68,9.04h0Z"/>
        <ellipse class="cls-3" cx="229.97" cy="152.38" rx="12.67" ry="16.93" transform="translate(-28.38 55.64) rotate(-13)"/>
        <ellipse class="cls-3" cx="286.41" cy="152.36" rx="16.93" ry="12.67" transform="translate(73.61 397.23) rotate(-77.02)"/>
        <path class="cls-3" d="M349.74,174.49h0c-1.34.77-2.88,1.22-4.62,1.22-5.84,0-8.58-6.85-9.98-12.52-2-8.07-2-21.14-.64-29.21.97-5.76,4.78-10.61,10.61-10.61,1,0,1.9.14,2.71.38h0c-1.48-12.36-5.66-23.93-11.95-34.15h0c-1.45-2.36-3.01-4.64-4.68-6.84,0,0,0,0-.01-.02-5.56-7.35-12.3-13.84-19.94-19.19h-.01c-2.29-1.6-4.66-3.11-7.11-4.5h-.02c-2.45-1.39-4.97-2.68-7.56-3.85h0c-3,9.29-6.62,20.38-6.62,20.38l-15.85,13.42-15.85,13.42-15.85-13.42-15.85-13.42-6.55-20.41h0c-2.6,1.17-5.13,2.47-7.59,3.86h0c-13.11,7.47-24.09,18.04-31.84,30.67h0c-6.3,10.26-10.47,21.88-11.93,34.29h0c.91-.31,1.92-.48,3.07-.47,5.84.03,9.62,4.91,10.56,10.67,1.32,8.08,1.25,21.15-.78,29.21-1.43,5.66-4.21,12.5-10.04,12.47-1.79,0-3.36-.48-4.71-1.29.17.49.35.97.55,1.45.03.07.06.15.09.22.21.49.43.97.68,1.44,3.73,7.03,9.08,13.04,15.54,18.12,2.42,1.9,5,3.67,7.71,5.31.9.55,1.82,1.08,2.75,1.6,1.86,1.04,3.78,2.01,5.75,2.94,1.97.92,3.98,1.79,6.03,2.6,3.08,1.22,6.24,2.31,9.47,3.29s6.52,1.83,9.85,2.57c7.76,1.72,15.73,2.81,23.56,3.31,2.24.14,4.47.24,6.68.28,1.1.02,2.21.04,3.3.04,35.31,0,74.95-11.57,89.76-40.04.24-.47.46-.95.67-1.44.04-.08.07-.17.1-.25.19-.48.37-.96.53-1.46v-.07ZM326.25,117.39c-3.51,11.65-11.86,15.34-12.29,30.53-.52,18.42,15.08,28.47,8.54,33.77-14.68,13.12-44.38,17.68-64.04,17.15-19.66.53-49.36-4.02-64.04-17.15-6.54-5.3,9.06-15.35,8.54-33.77-.43-15.19-8.78-18.87-12.29-30.53-4.58-15.21,16.33-17.81,20.05-17.09,19.66,3.78,22.69,7.03,47.74,8.38,25.05-1.35,28.08-4.61,47.74-8.38,3.72-.71,24.63,1.88,20.05,17.09h0Z"/>
      </g>
    </g>
  </g>
</svg>